<?xml version="1.0" encoding="UTF-8" standalone="no"?>
<svg width="200px" height="200px" viewBox="0 0 200 200" version="1.1" xmlns="http://www.w3.org/2000/svg" xmlns:xlink="http://www.w3.org/1999/xlink" xmlns:sketch="http://www.bohemiancoding.com/sketch/ns">
    <!-- Generator: Sketch 3.0.4 (8053) - http://www.bohemiancoding.com/sketch -->
    <title>plugin-icon</title>
    <desc>Created with Sketch.</desc>
    <defs></defs>
    <g id="tf-author" stroke="none" stroke-width="1" fill="none" fill-rule="evenodd" sketch:type="MSPage">
        <g id="plugin-icon" sketch:type="MSArtboardGroup">
            <g id="id-rocket-+-ignitiondeck-type" sketch:type="MSLayerGroup" transform="translate(7.000000, -26.000000)">
                <g id="id-rocket" transform="translate(92.921407, 125.589884) rotate(15.000000) translate(-92.921407, -125.589884) translate(26.842460, 12.596336)" sketch:type="MSShapeGroup">
                    <g id="Group" transform="translate(0.000000, -0.000000)">
                        <path d="M48.6187401,155.336367 C85.0207233,124.049201 122.808672,66.5513989 126.912218,10.9674751 C129.561858,61.6106057 77.3299721,143.187988 45.3168805,168.692797 L71.6774058,162.299628 C104.913408,128.664228 139.521789,79.5684888 129.969495,0.651533173 L130.241253,0.190030509 L129.928732,0.325766587 L129.887968,0 L129.629798,0.447929056 C56.0377333,32.1423032 31.1854649,86.4503079 18.4536029,131.636848 L25.9405356,157.508145 C32.2317332,117.275971 77.1669173,31.8844047 122.713557,8.59209372 C76.2429401,40.110011 45.0451225,101.136952 35.914054,148.020193 C38.6859855,149.798335 45.0315346,153.449636 48.6187401,155.336367 L48.6187401,155.336367 Z M103.338096,37.5910694 C104.65837,35.2899811 107.605648,34.4960383 109.912793,35.8147907 C112.219938,37.133543 113.006768,40.0670942 111.686494,42.3681825 C110.36622,44.6692708 107.418943,45.4497569 105.111797,44.1310046 C102.804652,42.8122522 102.017822,39.878701 103.338096,37.5910694 L103.338096,37.5910694 Z M87.8390955,57.8961191 C90.2256042,53.8384678 95.3871229,52.3716817 99.3831375,54.6198398 C103.379152,56.867998 104.697282,61.9674788 102.310773,66.0251301 C99.9242645,70.0827815 94.7488706,71.5495676 90.7528561,69.3014094 C86.7568415,67.0532512 85.4664619,61.9400622 87.8390955,57.8961191 L87.8390955,57.8961191 Z" id="Shape" fill="#3CA7C5"></path>
                        <path d="M37.0937237,161.49737 C37.0937237,161.49737 14.8620549,171.705845 8.22940229,179.517901 C14.5891062,176.70177 20.0753744,176.688231 20.0753744,176.688231 C20.0753744,176.688231 5.26790926,188.751561 0.191064066,196.780243 C5.51356306,191.865553 14.6164011,189.875306 14.6164011,189.875306 C14.6164011,189.875306 5.99122322,203.969501 -9.23705556e-14,224.494763 L0.286596099,224.657233 C15.2851253,209.330981 23.3644058,194.911848 23.3644058,194.911848 C23.3644058,194.911848 26.1348348,203.752875 24.4698479,210.779664 C28.9871483,202.426044 32.22159,183.674402 32.22159,183.674402 C32.22159,183.674402 34.9374293,188.399545 35.6334484,195.290943 C39.1954285,185.691727 37.0937237,161.49737 37.0937237,161.49737 L37.0937237,161.49737 Z" id="Shape" fill="#9ACA27"></path>
                    </g>
                </g>
            </g>
        </g>
    </g>
</svg>